<svg id="Layer_1" data-name="Layer 1" xmlns="http://www.w3.org/2000/svg" xmlns:xlink="http://www.w3.org/1999/xlink" viewBox="0 0 55.87 55.87"><defs><style>.cls-1{fill:#e3f4ff;opacity:0.3;}.cls-2{clip-path:url(#clip-path);}.cls-3{fill:#1361a0;fill-rule:evenodd;opacity:0.8;}</style><clipPath id="clip-path"><path class="cls-1" d="M55.87,27.94A27.94,27.94,0,1,1,27.94,0,27.93,27.93,0,0,1,55.87,27.94Z"/></clipPath></defs><path class="cls-1" d="M55.87,27.94A27.94,27.94,0,1,1,27.94,0,27.93,27.93,0,0,1,55.87,27.94Z"/><g class="cls-2"><path class="cls-3" d="M59.17,56.36a10.66,10.66,0,0,0-1.62-2.84,10.9,10.9,0,0,0-4-3.07,7.16,7.16,0,0,0-1.4-.59c-1.55-.35-3.09-.77-4.61-1.22a2,2,0,0,1-1.43-.5,21.86,21.86,0,0,1-3.38-1.44,1.45,1.45,0,0,1-1-.45c-.19,0-.35-.18-.55-.23a2.42,2.42,0,0,1-1.36-.87c-.21-.14-.43-.26-.63-.42a.84.84,0,0,1-.48-.62c-.09-.4-.21-.79-.32-1.19a8.62,8.62,0,0,1-.24-1.23c-.05-.23-.1-.43-.36-.5a1,1,0,0,0-.71,0c-.47.1-.73,0-.8-.54s-.15-.72-.17-1.08c0-.79-.16-1.63.6-2.21a31.25,31.25,0,0,0,2.08-5.61c.12-.44.32-.8.9-.82a.8.8,0,0,0,.74-.63A22.13,22.13,0,0,1,41.6,27a14.09,14.09,0,0,0,.59-2.32c0-.16,0-.32,0-.48a.37.37,0,0,0-.1-.17A.27.27,0,0,1,42,24c0-.34,0-.69,0-1a1,1,0,0,0-.73-1c-.43-.12-.51-.36-.49-.75.1-1.52.19-3.05.28-4.57a.17.17,0,0,0,0-.14.12.12,0,0,0,0-.1c0-.46-.08-.92-.13-1.38a7.9,7.9,0,0,0-.82-3.2,11.21,11.21,0,0,0-4.62-4.33,20,20,0,0,0-5.25-1.61,11.2,11.2,0,0,0-10,2.57.19.19,0,0,1,0,.07h0a2.23,2.23,0,0,0-.77.84A6.55,6.55,0,0,1,18.16,11a3.76,3.76,0,0,0-1.35,3.3l-.1.07a.52.52,0,0,0-.12.17,15.36,15.36,0,0,0,.05,3.25A13.34,13.34,0,0,1,17,20.59a.86.86,0,0,1-.6,1,1.5,1.5,0,0,0-1,1.35,4.61,4.61,0,0,0,.07,1.92c.25.9.51,1.79.8,2.67a7.62,7.62,0,0,1,.9,2.42A1.23,1.23,0,0,0,18,31a1,1,0,0,1,.7.83c.14.65.39,1.27.59,1.91a3.86,3.86,0,0,1,.61,1.58.61.61,0,0,0,0,.18,6.32,6.32,0,0,1,1,5.67c-.38.4-.75,0-1.12,0s-.69,0-.79.42c-.28.89-.44,1.83-.72,2.73a1.63,1.63,0,0,1-.87,1.08,17.8,17.8,0,0,1-3.17,1.31,10,10,0,0,1-2.45,1c-1.6.59-3.28.93-4.93,1.37a15.8,15.8,0,0,0-5.66,2.5c-.86,1.06-2,1.91-2.41,3.29,0,.59,0,1.17,0,1.76s.1.56.56.56q29.85,0,59.7,0C59.36,56.93,59.29,56.66,59.17,56.36Z"/></g></svg>